<svg width="120" height="32" viewBox="0 0 120 32" fill="none" xmlns="http://www.w3.org/2000/svg">
    <path d="M9.92839 0.00955683C8.91839 -0.0854432 7.97839 0.535807 7.72027 1.51706L6.79464 5.03393C18.5209 5.37706 26.4534 13.1971 26.9496 24.8464L30.5084 23.8602C31.4909 23.5877 32.1015 22.6302 31.9846 21.6164C30.6796 10.3177 21.2978 1.08268 9.92839 0.00955683ZM6.27402 7.00956L0.033392 30.7277C-0.0119753 30.9 -0.0111002 31.0812 0.0359291 31.2531C0.0829584 31.4249 0.174478 31.5813 0.301257 31.7065C0.428036 31.8317 0.585589 31.9213 0.758023 31.9661C0.930457 32.011 1.11167 32.0096 1.28339 31.9621L24.9709 25.3933C24.704 14.4627 17.2784 7.13456 6.27402 7.01206V7.00956ZM7.99902 26.0002C7.60345 26.0002 7.21678 25.8829 6.88788 25.6631C6.55898 25.4434 6.30263 25.131 6.15126 24.7655C5.99988 24.4001 5.96028 23.998 6.03745 23.61C6.11462 23.222 6.3051 22.8657 6.5848 22.586C6.86451 22.3063 7.22087 22.1158 7.60884 22.0386C7.9968 21.9614 8.39893 22.001 8.76438 22.1524C9.12984 22.3038 9.44219 22.5601 9.66196 22.889C9.88172 23.2179 9.99902 23.6046 9.99902 24.0002C9.99902 24.5306 9.7883 25.0393 9.41323 25.4144C9.03816 25.7895 8.52945 26.0002 7.99902 26.0002ZM10.999 16.5002C10.6035 16.5002 10.2168 16.3829 9.88788 16.1631C9.55898 15.9434 9.30263 15.631 9.15126 15.2655C8.99988 14.9001 8.96028 14.498 9.03745 14.11C9.11462 13.722 9.3051 13.3657 9.5848 13.086C9.86451 12.8063 10.2209 12.6158 10.6088 12.5386C10.9968 12.4614 11.3989 12.501 11.7644 12.6524C12.1298 12.8038 12.4422 13.0601 12.662 13.389C12.8817 13.7179 12.999 14.1046 12.999 14.5002C12.999 15.0306 12.7883 15.5393 12.4132 15.9144C12.0382 16.2895 11.5294 16.5002 10.999 16.5002ZM17.499 23.0002C17.1035 23.0002 16.7168 22.8829 16.3879 22.6631C16.059 22.4434 15.8026 22.131 15.6513 21.7655C15.4999 21.4001 15.4603 20.998 15.5374 20.61C15.6146 20.222 15.8051 19.8657 16.0848 19.586C16.3645 19.3063 16.7209 19.1158 17.1088 19.0386C17.4968 18.9614 17.8989 19.001 18.2644 19.1524C18.6298 19.3038 18.9422 19.5601 19.162 19.889C19.3817 20.2179 19.499 20.6046 19.499 21.0002C19.499 21.5306 19.2883 22.0393 18.9132 22.4144C18.5382 22.7895 18.0295 23.0002 17.499 23.0002Z" fill="#5850EB"/>
    <path d="M50.1378 23H52.9055V18.7557H55.2322C58.2429 18.7557 59.9943 16.9595 59.9943 14.3452C59.9943 11.7436 58.2749 9.90909 55.3026 9.90909H50.1378V23ZM52.9055 16.5376V12.1719H54.772C56.37 12.1719 57.1435 13.0412 57.1435 14.3452C57.1435 15.6428 56.37 16.5376 54.7848 16.5376H52.9055ZM61.7409 23H64.464V13.1818H61.7409V23ZM63.1088 11.9162C63.9206 11.9162 64.5854 11.2962 64.5854 10.5355C64.5854 9.78125 63.9206 9.16122 63.1088 9.16122C62.3034 9.16122 61.6387 9.78125 61.6387 10.5355C61.6387 11.2962 62.3034 11.9162 63.1088 11.9162ZM66.5941 23H74.8462V20.8267H70.1673V20.7564L74.68 14.9524V13.1818H66.7603V15.3551H71.4009V15.4254L66.5941 21.3764V23ZM76.8773 23H85.1294V20.8267H80.4505V20.7564L84.9632 14.9524V13.1818H77.0435V15.3551H81.6841V15.4254L76.8773 21.3764V23ZM91.4048 23.1918C93.8338 23.1918 95.4702 22.0092 95.8537 20.1875L93.3352 20.0213C93.0604 20.7692 92.3572 21.1591 91.4496 21.1591C90.0881 21.1591 89.2251 20.2578 89.2251 18.794V18.7876H95.9112V18.0398C95.9112 14.7031 93.8913 13.054 91.2962 13.054C88.407 13.054 86.5341 15.1058 86.5341 18.1357C86.5341 21.2486 88.3814 23.1918 91.4048 23.1918ZM89.2251 17.1001C89.2827 15.9815 90.1328 15.0866 91.3409 15.0866C92.5234 15.0866 93.3416 15.9304 93.348 17.1001H89.2251ZM97.6882 23H100.411V17.4453C100.411 16.2372 101.293 15.4062 102.495 15.4062C102.872 15.4062 103.39 15.4702 103.646 15.5533V13.1371C103.403 13.0795 103.064 13.0412 102.789 13.0412C101.69 13.0412 100.788 13.6804 100.43 14.8949H100.328V13.1818H97.6882V23ZM105.053 23H107.776V13.1818H105.053V23ZM106.421 11.9162C107.233 11.9162 107.898 11.2962 107.898 10.5355C107.898 9.78125 107.233 9.16122 106.421 9.16122C105.616 9.16122 104.951 9.78125 104.951 10.5355C104.951 11.2962 105.616 11.9162 106.421 11.9162ZM112.757 23.1854C114.208 23.1854 115.148 22.5526 115.627 21.6385H115.704V23H118.287V16.3778C118.287 14.0384 116.305 13.054 114.119 13.054C111.767 13.054 110.22 14.179 109.843 15.9688L112.361 16.1733C112.547 15.5213 113.128 15.0419 114.106 15.0419C115.033 15.0419 115.564 15.5085 115.564 16.3139V16.3523C115.564 16.9851 114.892 17.0682 113.186 17.2344C111.243 17.4134 109.498 18.0653 109.498 20.2578C109.498 22.201 110.885 23.1854 112.757 23.1854ZM113.537 21.3061C112.7 21.3061 112.099 20.9162 112.099 20.1683C112.099 19.4013 112.732 19.0241 113.691 18.8899C114.285 18.8068 115.257 18.6662 115.583 18.4489V19.4908C115.583 20.5199 114.733 21.3061 113.537 21.3061Z" fill="#252F3F"/>
</svg>
